<svg xmlns="http://www.w3.org/2000/svg" width="77.24" height="50.198" viewBox="0 0 77.24 50.198">
  <g id="Icon_ionic-ios-people" data-name="Icon ionic-ios-people" transform="translate(0 0)">
    <path id="Path_881" data-name="Path 881" d="M48.2,46.369c-1.927-.688-5.075-.723-6.468-1.256-.963-.378-2.494-.791-2.993-1.393s-.5-4.9-.5-4.9a7.92,7.92,0,0,0,1.7-2.408,26.766,26.766,0,0,0,.826-4.731s1.135.482,1.583-1.789c.378-1.961,1.1-2.993.912-4.438-.206-1.445-1-1.1-1-1.1s1-1.462,1-6.434c0-5.126-3.871-10.167-11.113-10.167-7.225,0-11.13,5.058-11.13,10.167,0,4.972.981,6.434.981,6.434s-.809-.344-1,1.1c-.206,1.445.516,2.477.912,4.438.447,2.288,1.583,1.789,1.583,1.789a27.025,27.025,0,0,0,.826,4.731,7.92,7.92,0,0,0,1.7,2.408s0,4.3-.5,4.9S23.5,44.734,22.538,45.1c-1.376.533-4.524.6-6.468,1.29a12.141,12.141,0,0,0-7.879,11.56H56.067A12.117,12.117,0,0,0,48.2,46.369Z" transform="translate(6.431 -7.748)" fill="#002d5b"/>
    <path id="Path_882" data-name="Path 882" d="M20.88,32.986s4.111-.138,5.746-1.6c-2.666-4.043-1.221-8.756-1.772-13.16-.55-4.387-3.045-7.019-8.034-7.019h-.069c-4.817,0-7.414,2.615-7.965,7.019-.55,4.387.981,9.634-1.755,13.16,1.634,1.479,5.763,1.428,5.763,1.428h0s.172,2.477-.172,2.89a4.344,4.344,0,0,1-2.064.946A39.915,39.915,0,0,0,6.1,37.889a7.243,7.243,0,0,0-3.888,6.4H16.029c.378-1.376,2.976-3.836,5.5-5.126a11.552,11.552,0,0,1,4.249-.895s.654-1.032-1.5-1.428c0,0-2.959-.74-3.3-1.153C20.656,35.309,20.88,32.986,20.88,32.986Z" transform="translate(-2.215 -2.744)" fill="#002d5b"/>
    <path id="Path_883" data-name="Path 883" d="M29.554,32.986s-4.111-.138-5.746-1.6c2.666-4.043,1.221-8.756,1.772-13.16.55-4.387,3.045-7.019,8.034-7.019h.069c4.817,0,7.414,2.615,7.965,7.019.55,4.387-.981,9.634,1.755,13.16-1.634,1.479-5.763,1.428-5.763,1.428h0s-.172,2.477.172,2.89a4.344,4.344,0,0,0,2.064.946,39.915,39.915,0,0,1,4.456,1.239,7.243,7.243,0,0,1,3.888,6.4H34.4c-.378-1.376-2.976-3.836-5.5-5.126a11.552,11.552,0,0,0-4.249-.895s-.654-1.032,1.5-1.428c0,0,2.959-.74,3.3-1.153C29.777,35.309,29.554,32.986,29.554,32.986Z" transform="translate(29.022 -2.744)" fill="#002d5b"/>
  </g>
</svg>
