<svg id="Group_479" data-name="Group 479" xmlns="http://www.w3.org/2000/svg" width="67.639" height="58.137" viewBox="0 0 67.639 58.137">
  <path id="Icon_awesome-lightbulb" data-name="Icon awesome-lightbulb" d="M5.3,25.069a1.766,1.766,0,0,0,.3.976l.943,1.417a1.765,1.765,0,0,0,1.47.788h3.4a1.765,1.765,0,0,0,1.47-.788l.943-1.417a1.765,1.765,0,0,0,.3-.976l0-2.116H5.3ZM0,9.711A9.657,9.657,0,0,0,2.4,16.1a15.856,15.856,0,0,1,2.881,5.046c0,.014,0,.029.006.043h8.841c0-.014,0-.028.006-.043A15.856,15.856,0,0,1,17.018,16.1,9.709,9.709,0,1,0,0,9.711Z" transform="translate(25 0)" fill="#002d5b"/>
  <path id="Icon_awesome-hand-holding-heart" data-name="Icon awesome-hand-holding-heart" d="M66.379,30.428a3.887,3.887,0,0,0-5,0l-10.85,8.678a7.476,7.476,0,0,1-4.7,1.644H31.939a1.879,1.879,0,0,1,0-3.758h9.194a3.909,3.909,0,0,0,3.91-3.123,3.762,3.762,0,0,0-3.711-4.392H22.545a13.82,13.82,0,0,0-8.7,3.088l-5.46,4.427H1.879A1.884,1.884,0,0,0,0,38.871V50.143a1.884,1.884,0,0,0,1.879,1.879h41.9a7.524,7.524,0,0,0,4.7-1.644L66.226,36.17A3.756,3.756,0,0,0,66.379,30.428Z" transform="translate(0 6.116)" fill="#002d5b"/>
</svg>
