<svg xmlns="http://www.w3.org/2000/svg" width="31.348" height="26.953" viewBox="0 0 31.348 26.953">
  <g id="Icon_ionic-ios-log-in" data-name="Icon ionic-ios-log-in" transform="translate(1 1)">
    <path id="Path_5" data-name="Path 5" d="M29.508,5.625H9.659A3.261,3.261,0,0,0,6.4,8.886a.992.992,0,0,0,1.985,0A1.28,1.28,0,0,1,9.659,7.61H29.508a1.28,1.28,0,0,1,1.276,1.276V27.317a1.28,1.28,0,0,1-1.276,1.276H9.659a1.28,1.28,0,0,1-1.276-1.276.992.992,0,1,0-1.985,0,3.261,3.261,0,0,0,3.261,3.261H29.508a3.261,3.261,0,0,0,3.261-3.261V8.886A3.261,3.261,0,0,0,29.508,5.625Z" transform="translate(-3.421 -5.625)" fill="#fff" stroke="#fff" stroke-width="2"/>
    <path id="Path_6" data-name="Path 6" d="M15.851,23.6a1,1,0,0,0,0,1.4l.007.007a1.025,1.025,0,0,0,.695.276.958.958,0,0,0,.7-.291l5.855-5.841a1.393,1.393,0,0,0,0-2.07l-6-5.983a.986.986,0,0,0-.7-.291.969.969,0,0,0-.7.291.988.988,0,0,0,0,1.4l4.622,4.551H4.438a.992.992,0,1,0,0,1.985H20.36Z" transform="translate(-3.445 -5.582)" fill="#fff" stroke="#fff" stroke-width="2"/>
  </g>
</svg>
