<svg xmlns="http://www.w3.org/2000/svg" width="29.415" height="29.415" viewBox="0 0 29.415 29.415">
  <path id="Icon_metro-earth" data-name="Icon metro-earth" d="M16.278,1.928A13.707,13.707,0,1,0,29.986,15.635,13.707,13.707,0,0,0,16.278,1.928Zm0,25.7a11.954,11.954,0,0,1-4.745-.976l6.242-7.022a.857.857,0,0,0,.216-.569v-2.57a.857.857,0,0,0-.857-.857c-3.025,0-6.217-2.3-6.248-2.335a.857.857,0,0,0-.606-.251L7.7,13.89c-.473,0-.857,2.065-.857,2.538v1.777a.857.857,0,0,0,.474.766l2.112,1.477v5.03A12,12,0,0,1,5.439,10.5H8.568a.857.857,0,0,0,.606-.251L12.6,6.817a.857.857,0,0,0,.251-.606V4.139a12.028,12.028,0,0,1,8.682.712c-.111.094-.219.192-.323.3a5.141,5.141,0,0,0,3.631,8.776q.127,0,.255-.006a20.118,20.118,0,0,1-.225,9.968.854.854,0,0,0-.023.14,11.957,11.957,0,0,1-8.571,3.605Z" transform="translate(-1.571 -0.928)" fill="#fff" stroke="#fff" stroke-width="2"/>
</svg>
